<svg xmlns="http://www.w3.org/2000/svg" viewBox="0 0 100 100" width="100" height="100">
  <g fill="#FF7A00">
    <rect x="45" y="5" width="10" height="16" rx="5" />
    <rect x="45" y="79" width="10" height="16" rx="5" />
    <rect x="5" y="45" width="16" height="10" rx="5" />
    <rect x="79" y="45" width="16" height="10" rx="5" />
    <rect x="20" y="20" width="10" height="16" rx="5" transform="rotate(45 25 28)" />
    <rect x="70" y="64" width="10" height="16" rx="5" transform="rotate(45 75 72)" />
    <rect x="64" y="20" width="16" height="10" rx="5" transform="rotate(45 72 25)" />
    <rect x="20" y="70" width="16" height="10" rx="5" transform="rotate(45 28 75)" />
  </g>
  <circle cx="50" cy="50" r="24" fill="#FFB000" />
  <circle cx="42" cy="42" r="5" fill="#FFD166" opacity="0.6" />
</svg>
